<svg width="24" height="24" viewBox="0 0 24 24" fill="none" xmlns="http://www.w3.org/2000/svg">
<path fill-rule="evenodd" clip-rule="evenodd" d="M4.68536 6.87524H11.5123V8.00057C11.5123 9.29774 12.5067 10.4763 13.8809 10.4763H14.6361L14.6545 10.8881C14.7066 12.0534 16.0349 12.692 16.9776 12.0049L19.075 10.4763H19.3146V16.2101C19.3146 17.749 17.9753 18.9966 16.3233 18.9966H13.0159L13.0145 21.5108C13.0143 21.9115 12.5578 22.1409 12.2362 21.9021L9.07412 19.5539H4.68536C3.06949 19.5539 1.75952 18.2924 1.75952 16.7364V9.69272C1.75952 8.1367 3.06949 6.87524 4.68536 6.87524ZM16.3497 6.87524H12.4876V8.00057C12.4876 8.82843 13.1121 9.501 13.8809 9.501H15.5687L15.6288 10.8445C15.6462 11.233 16.0889 11.4458 16.4032 11.2168L18.7573 9.501H19.2954C19.1271 8.02325 17.8725 6.87524 16.3497 6.87524ZM6.78574 13.3346C6.78574 13.981 6.26176 14.505 5.6154 14.505C4.96905 14.505 4.44507 13.981 4.44507 13.3346C4.44507 12.6883 4.96905 12.1643 5.6154 12.1643C6.26176 12.1643 6.78574 12.6883 6.78574 13.3346ZM8.93181 14.505C9.57817 14.505 10.1021 13.981 10.1021 13.3346C10.1021 12.6883 9.57817 12.1643 8.93181 12.1643C8.28545 12.1643 7.76147 12.6883 7.76147 13.3346C7.76147 13.981 8.28545 14.505 8.93181 14.505ZM13.4185 13.3346C13.4185 13.981 12.8945 14.505 12.2481 14.505C11.6018 14.505 11.0778 13.981 11.0778 13.3346C11.0778 12.6883 11.6018 12.1643 12.2481 12.1643C12.8945 12.1643 13.4185 12.6883 13.4185 13.3346Z" fill="#333749"/>
<path d="M20.8476 2.00024H13.8813C13.1126 2.00024 12.488 2.67281 12.488 3.50068V8.00197C12.488 8.82983 13.1126 9.5024 13.8813 9.5024H15.5692L15.6282 10.8229C15.646 11.2212 16.1 11.4395 16.4222 11.2046L18.7577 9.5024H20.8476C21.6163 9.5024 22.2408 8.82983 22.2408 8.00197V3.50068C22.2408 2.67281 21.6163 2.00024 20.8476 2.00024Z" fill="#6C88EB"/>
</svg>
