<svg width="22" height="20" viewBox="0 0 22 20" fill="none" xmlns="http://www.w3.org/2000/svg">
<path fill-rule="evenodd" clip-rule="evenodd" d="M3.68538 4.87524H10.5123V6.00057C10.5123 7.29774 11.5067 8.47628 12.8809 8.47628H13.6361L13.6545 8.88807C13.7066 10.0534 15.0349 10.692 15.9776 10.0049L18.075 8.47628H18.3146V14.2101C18.3146 15.749 16.9753 16.9966 15.3234 16.9966H12.0159L12.0146 19.5108C12.0143 19.9115 11.5578 20.1409 11.2362 19.9021L8.07414 17.5539H3.68538C2.06951 17.5539 0.759537 16.2924 0.759537 14.7364V7.69272C0.759537 6.1367 2.06951 4.87524 3.68538 4.87524ZM15.3497 4.87524H11.4876V6.00057C11.4876 6.82843 12.1121 7.501 12.8809 7.501H14.5687L14.6288 8.84451C14.6462 9.23296 15.089 9.44583 15.4032 9.2168L17.7573 7.501H18.2954C18.1271 6.02325 16.8725 4.87524 15.3497 4.87524ZM5.78576 11.3346C5.78576 11.981 5.26178 12.505 4.61542 12.505C3.96906 12.505 3.44508 11.981 3.44508 11.3346C3.44508 10.6883 3.96906 10.1643 4.61542 10.1643C5.26178 10.1643 5.78576 10.6883 5.78576 11.3346ZM7.93183 12.505C8.57819 12.505 9.10216 11.981 9.10216 11.3346C9.10216 10.6883 8.57819 10.1643 7.93183 10.1643C7.28547 10.1643 6.76149 10.6883 6.76149 11.3346C6.76149 11.981 7.28547 12.505 7.93183 12.505ZM12.4185 11.3346C12.4185 11.981 11.8945 12.505 11.2481 12.505C10.6018 12.505 10.0778 11.981 10.0778 11.3346C10.0778 10.6883 10.6018 10.1643 11.2481 10.1643C11.8945 10.1643 12.4185 10.6883 12.4185 11.3346Z" fill="#C0C2C8"/>
<path d="M19.8476 0.000244141H12.8813C12.1126 0.000244141 11.4881 0.672812 11.4881 1.50068V6.00197C11.4881 6.82983 12.1126 7.5024 12.8813 7.5024H14.5692L14.6282 8.82292C14.646 9.22122 15.1 9.43948 15.4222 9.20464L17.7577 7.5024H19.8476C20.6163 7.5024 21.2409 6.82983 21.2409 6.00197V1.50068C21.2409 0.672812 20.6163 0.000244141 19.8476 0.000244141Z" fill="#6C88EB"/>
</svg>
