<svg width="375" height="365" viewBox="0 0 375 365" fill="none" xmlns="http://www.w3.org/2000/svg">
<path d="M0 44.1345L84.7289 196.808C86.2718 199.588 85.378 203.089 82.6913 204.789L0 257.122M150.542 4.15126L178.32 54.5448C179.856 57.3324 178.948 60.8347 176.251 62.5251L82.3025 121.408C79.6071 123.097 78.6986 126.597 80.2319 129.384L84.3538 136.877C86.0386 139.939 89.9744 140.919 92.8984 139.004L221.443 54.8057C224.477 52.8188 228.566 53.9561 230.138 57.2239L233.049 63.2757C234.344 65.9689 233.461 69.2048 230.976 70.8653L99.601 158.66C96.9759 160.415 96.1595 163.903 97.7338 166.64L101.933 173.941C103.655 176.936 107.544 177.861 110.43 175.963L294.677 54.8223C297.71 52.8278 301.806 53.9631 303.38 57.2347L306.268 63.2395C307.571 65.9483 306.669 69.2033 304.157 70.8543L115.89 194.607C113.17 196.395 112.372 200.027 114.091 202.791L118.841 210.425C120.611 213.27 124.369 214.114 127.186 212.299L184.797 175.177C187.644 173.342 191.444 174.226 193.189 177.129L208 201.761M0 364L116.636 278.771C119.528 276.658 123.615 277.533 125.389 280.645L147.339 319.165C149.068 322.198 153.012 323.121 155.907 321.169L245.369 260.854C248.326 258.86 252.359 259.87 254.026 263.022L280.337 312.743C282.003 315.892 286.029 316.904 288.986 314.917L375 257.122M235.307 4.15126L247.688 26.7351C249.405 29.8664 253.46 30.8143 256.387 28.7685L294.737 1.96328C297.729 -0.128516 301.881 0.915233 303.529 4.17365L355.483 106.925C357.172 110.264 361.471 111.26 364.456 109.004L375 101.034" stroke="#ACB6DD" stroke-opacity="0.8" stroke-linecap="round" stroke-dasharray="6 6"/>
</svg>
