<svg width="34" height="34" viewBox="0 0 34 34" fill="none" xmlns="http://www.w3.org/2000/svg">
<rect width="34" height="34" rx="8" fill="url(#paint0_linear_166_2059)"/>
<rect width="34" height="34" rx="8" fill="#F7931A"/>
<path d="M24.7229 14.6047C25.0613 12.3424 23.3389 11.1263 20.9836 10.315L21.7476 7.25039L19.8822 6.7855L19.1384 9.76931C18.648 9.64711 18.1443 9.53183 17.6438 9.41759L18.3929 6.41411L16.5286 5.94922L15.764 9.01273C15.3581 8.92028 14.9596 8.82891 14.5728 8.73274L14.575 8.72317L12.0024 8.08082L11.5061 10.0732C11.5061 10.0732 12.8902 10.3904 12.861 10.4101C13.6165 10.5987 13.753 11.0986 13.7302 11.495L12.8599 14.9862C12.912 14.9995 12.9795 15.0186 13.0538 15.0484C12.9917 15.033 12.9253 15.016 12.8567 14.9995L11.6368 19.8902C11.5444 20.1197 11.3101 20.464 10.782 20.3333C10.8006 20.3604 9.42607 19.9948 9.42607 19.9948L8.5 22.1302L10.9275 22.7353C11.3791 22.8485 11.8217 22.967 12.2574 23.0785L11.4854 26.1782L13.3487 26.6431L14.1133 23.5764C14.6222 23.7145 15.1164 23.842 15.5999 23.9621L14.838 27.0145L16.7034 27.4794L17.4754 24.3856C20.6563 24.9875 23.0482 24.7447 24.0551 21.8677C24.8664 19.5512 24.0147 18.215 22.3411 17.3436C23.5599 17.0626 24.478 16.2608 24.7229 14.6047ZM20.4608 20.5814C19.8843 22.8979 15.984 21.6456 14.7195 21.3316L15.7438 17.2251C17.0083 17.5407 21.0633 18.1655 20.4608 20.5814ZM21.0378 14.5713C20.5118 16.6784 17.2655 15.6078 16.2124 15.3454L17.1412 11.6209C18.1942 11.8834 21.5855 12.3732 21.0378 14.5713Z" fill="white"/>
<defs>
<linearGradient id="paint0_linear_166_2059" x1="-15.64" y1="-35.02" x2="55.5375" y2="-6.50986" gradientUnits="userSpaceOnUse">
<stop offset="0.121991" stop-color="#21263D"/>
<stop offset="1" stop-color="#4F5882"/>
</linearGradient>
</defs>
</svg>
