<?xml version="1.0" encoding="UTF-8"?>
<svg width="752pt" height="752pt" version="1.1" viewBox="0 0 752 752" xmlns="http://www.w3.org/2000/svg">
 <g>
  <path d="m517.13 236.77h-43.57v-73.879h-14.207v73.879h-43.57c-3.7891 0-7.1055 3.3164-7.1055 7.1055v264.26c0 3.7891 3.3164 7.1055 7.1055 7.1055h43.57v73.875h14.207v-73.879h43.57c3.7891 0 7.1055-3.3164 7.1055-7.1055l-0.003906-264.26c0-3.7891-3.3125-7.1016-7.1016-7.1016z"/>
  <path d="m336.7 286.97h-43.57v-73.879h-14.207v73.879h-43.57c-3.7891 0-7.1055 3.3164-7.1055 7.1055v163.86c0 3.7891 3.3164 7.1055 7.1055 7.1055h43.57v73.879h14.207v-73.883h43.57c3.7891 0 7.1055-3.3164 7.1055-7.1055l-0.003906-163.86c0-3.7852-3.3125-7.1016-7.1016-7.1016zm-7.1055 163.86h-87.613v-149.65h87.141v149.65z"/>
 </g>
</svg>
