<svg width="34" height="34" viewBox="0 0 34 34" fill="none" xmlns="http://www.w3.org/2000/svg">
<rect width="34" height="34" rx="8" fill="url(#paint0_linear_166_2103)"/>
<g clip-path="url(#clip0_166_2103)">
<path d="M20.9189 8.87324L17.6148 6.89643C17.3945 6.82322 17.2476 6.75 17.0274 6.75C16.8071 6.75 16.6602 6.82322 16.5134 6.89643L13.2092 8.87324C12.8421 9.09288 12.6218 9.45896 12.6218 9.82503V13.9251C12.6218 14.2911 12.8421 14.6572 13.1358 14.8769L16.44 16.8537C16.5868 16.9269 16.8071 17.0001 16.9539 17.0001C17.1008 17.0001 17.3211 16.9269 17.4679 16.8537L20.7721 14.8769C21.0658 14.6572 21.2861 14.3644 21.2861 13.9251V9.82503C21.4329 9.45896 21.2126 9.09288 20.9189 8.87324Z" fill="url(#paint1_radial_166_2103)"/>
<path d="M26.7952 19.1232L23.4911 17.1464C23.2708 17.0732 23.1239 17 22.9036 17C22.6834 17 22.5365 17.0732 22.3897 17.1464L19.0855 19.1232C18.7918 19.3429 18.5715 19.6357 18.5715 20.075V24.1751C18.5715 24.5411 18.7918 24.9072 19.0855 25.1269L22.3897 27.1037C22.5365 27.1769 22.7568 27.2501 22.9036 27.2501C23.0505 27.2501 23.2708 27.1769 23.4176 27.1037L26.7218 25.1269C27.0155 24.9072 27.2358 24.6144 27.2358 24.1751V20.075C27.3092 19.709 27.0889 19.3429 26.7952 19.1232Z" fill="#EDF5FC"/>
<path d="M15.0471 19.1232L11.7429 17.1464C11.5227 17.0732 11.3758 17 11.1555 17C10.9353 17 10.7884 17.0732 10.6416 17.1464L7.33741 19.1232C6.97028 19.3429 6.75 19.709 6.75 20.075V24.1751C6.75 24.5411 6.97028 24.9072 7.26398 25.1269L10.5681 27.1037C10.7884 27.1769 10.9353 27.2501 11.1555 27.2501C11.3758 27.2501 11.5227 27.1769 11.6695 27.1037L14.9737 25.1269C15.2674 24.9072 15.4877 24.6144 15.4877 24.1751V20.075C15.5611 19.709 15.3408 19.3429 15.0471 19.1232Z" fill="url(#paint2_radial_166_2103)"/>
</g>
<defs>
<linearGradient id="paint0_linear_166_2103" x1="-15.64" y1="-35.02" x2="55.5375" y2="-6.50986" gradientUnits="userSpaceOnUse">
<stop offset="0.121991" stop-color="#21263D"/>
<stop offset="1" stop-color="#4F5882"/>
</linearGradient>
<radialGradient id="paint1_radial_166_2103" cx="0" cy="0" r="1" gradientUnits="userSpaceOnUse" gradientTransform="translate(18.8439 10.1667) rotate(132.211) scale(11.9937 13.2749)">
<stop offset="0.187956" stop-color="#EDF5FC"/>
<stop offset="0.721859" stop-color="#EDF5FC" stop-opacity="0.3"/>
</radialGradient>
<radialGradient id="paint2_radial_166_2103" cx="0" cy="0" r="1" gradientUnits="userSpaceOnUse" gradientTransform="translate(13.0013 20.4167) rotate(132.345) scale(12.0191 13.309)">
<stop offset="0.187956" stop-color="#EDF5FC"/>
<stop offset="0.721859" stop-color="#EDF5FC" stop-opacity="0.3"/>
</radialGradient>
<clipPath id="clip0_166_2103">
<rect width="22" height="22" fill="white" transform="translate(6 6)"/>
</clipPath>
</defs>
</svg>
