<svg width="22" height="18" viewBox="0 0 22 18" fill="none" xmlns="http://www.w3.org/2000/svg">
<path d="M1.56406 2.54809C1.56406 2.34441 1.72917 2.1793 1.93285 2.1793H5.35116V8.67045C3.22575 8.46543 1.56406 6.67435 1.56406 4.49516V2.54809Z" stroke="#C0C2C8" stroke-opacity="0.7" stroke-width="1.3" stroke-linecap="round" stroke-linejoin="round"/>
<path d="M20.4359 2.54809C20.4359 2.34441 20.2708 2.1793 20.0671 2.1793H16.6488V8.67045C18.7743 8.46543 20.4359 6.67435 20.4359 4.49516V2.54809Z" stroke="#C0C2C8" stroke-opacity="0.7" stroke-width="1.3" stroke-linecap="round" stroke-linejoin="round"/>
<path fill-rule="evenodd" clip-rule="evenodd" d="M4.49631 0.678819C4.49631 0.303918 4.80022 0 5.17513 0H16.8293C17.2042 0 17.5082 0.303917 17.5082 0.678819V7.74926C17.5082 11.0851 14.9976 13.8345 11.7629 14.2112V16.4746H16.0557C16.3416 16.4746 16.6083 16.5573 16.8332 16.7C16.8786 16.7289 16.9224 16.7602 16.9643 16.7938C17.181 16.9678 17.3469 17.2027 17.4357 17.4725C17.4829 17.6156 17.5084 17.7685 17.5084 17.9274C17.5084 17.9675 17.4759 18 17.4357 18H5.79651H4.49651C4.49651 17.4503 4.78733 16.9684 5.22352 16.7C5.45575 16.5571 5.72918 16.4746 6.02187 16.4746H10.2444V14.2115C7.00829 13.8361 4.49631 11.086 4.49631 7.74926V0.678819Z" fill="#C0C2C8"/>
<path d="M10.5122 3.43743C10.693 3.00263 11.3089 3.00263 11.4898 3.43743L11.997 4.65701C12.0733 4.84031 12.2457 4.96555 12.4436 4.98142L13.7602 5.08697C14.2296 5.1246 14.4199 5.7104 14.0623 6.01676L13.0592 6.87605C12.9084 7.0052 12.8425 7.20785 12.8886 7.40096L13.1951 8.68577C13.3043 9.14383 12.806 9.50587 12.4042 9.26041L11.2769 8.5719C11.1075 8.46842 10.8944 8.46842 10.725 8.5719L9.59779 9.26041C9.19592 9.50587 8.69761 9.14383 8.80687 8.68577L9.11335 7.40096C9.15941 7.20785 9.09356 7.0052 8.94279 6.87605L7.93966 6.01676C7.58202 5.7104 7.77235 5.1246 8.24176 5.08697L9.5584 4.98142C9.75629 4.96555 9.92867 4.84031 10.0049 4.65701L10.5122 3.43743Z" fill="white"/>
</svg>
