<svg width="24" height="24" viewBox="0 0 24 24" fill="none" xmlns="http://www.w3.org/2000/svg">
<path d="M2.93285 5.1793H6.35116V11.6704C4.22575 11.4654 2.56406 9.67435 2.56406 7.49516V5.54809C2.56406 5.34441 2.72917 5.1793 2.93285 5.1793Z" stroke="#333749" stroke-width="1.3" stroke-linecap="round" stroke-linejoin="round"/>
<path d="M21.0671 5.1793H17.6488V11.6704C19.7743 11.4654 21.4359 9.67435 21.4359 7.49516V5.54809C21.4359 5.34441 21.2708 5.1793 21.0671 5.1793Z" stroke="#333749" stroke-width="1.3" stroke-linecap="round" stroke-linejoin="round"/>
<path fill-rule="evenodd" clip-rule="evenodd" d="M5.49634 3.67882C5.49634 3.30392 5.80026 3 6.17516 3H17.8294C18.2043 3 18.5082 3.30392 18.5082 3.67882V10.7493C18.5082 14.0851 15.9976 16.8345 12.7629 17.2112V19.4746H17.0557C17.3417 19.4746 17.6084 19.5573 17.8332 19.7C17.8787 19.7289 17.9224 19.7602 17.9643 19.7938C18.1811 19.9678 18.3469 20.2027 18.4358 20.4725C18.4829 20.6156 18.5084 20.7685 18.5084 20.9274C18.5084 20.9675 18.4759 21 18.4358 21H6.79654H5.49654C5.49654 20.4503 5.78736 19.9684 6.22355 19.7C6.45578 19.5571 6.72921 19.4746 7.0219 19.4746H11.2444V17.2115C8.00833 16.8361 5.49634 14.086 5.49634 10.7493V3.67882Z" fill="#333749"/>
<path d="M11.5122 6.43743C11.693 6.00263 12.3089 6.00263 12.4898 6.43743L12.997 7.65701C13.0733 7.84031 13.2457 7.96555 13.4436 7.98142L14.7602 8.08697C15.2296 8.1246 15.4199 8.7104 15.0623 9.01676L14.0592 9.87605C13.9084 10.0052 13.8425 10.2078 13.8886 10.401L14.1951 11.6858C14.3043 12.1438 13.806 12.5059 13.4042 12.2604L12.2769 11.5719C12.1075 11.4684 11.8944 11.4684 11.725 11.5719L10.5978 12.2604C10.1959 12.5059 9.69761 12.1438 9.80687 11.6858L10.1133 10.401C10.1594 10.2078 10.0936 10.0052 9.94279 9.87605L8.93966 9.01676C8.58202 8.7104 8.77235 8.1246 9.24176 8.08697L10.5584 7.98142C10.7563 7.96555 10.9287 7.84031 11.0049 7.65701L11.5122 6.43743Z" fill="white"/>
</svg>
