<svg width="24" height="24" viewBox="0 0 24 24" fill="none" xmlns="http://www.w3.org/2000/svg">
<path d="M12.9999 4.7001L14.6 8.0001C14.8 8.3001 15.0999 8.60009 15.4999 8.60009L19.1999 9.10009C20.1999 9.20009 20.4999 10.4001 19.7999 11.1001L17.1 13.7001C16.8 14.0001 16.6999 14.4001 16.7999 14.7001L17.3999 18.4001C17.5999 19.3001 16.5999 20.1001 15.6999 19.6001L12.3999 17.9001C12.0999 17.7001 11.6999 17.7001 11.2999 17.9001L7.99995 19.6001C7.09995 20.0001 6.19995 19.3001 6.29995 18.4001L6.89994 14.7001C6.99994 14.3001 6.79995 13.9001 6.59995 13.7001L3.89994 11.1001C3.19994 10.4001 3.59995 9.30009 4.49995 9.10009L8.19994 8.60009C8.59994 8.50009 8.89995 8.3001 9.09995 8.0001L10.6999 4.7001C11.3999 3.9001 12.5999 3.9001 12.9999 4.7001Z" stroke="#3E485F" stroke-width="1.5" stroke-miterlimit="10" stroke-linecap="round" stroke-linejoin="round"/>
</svg>
