<svg width="20" height="20" viewBox="0 0 20 20" fill="none" xmlns="http://www.w3.org/2000/svg">
<path fill-rule="evenodd" clip-rule="evenodd" d="M10 19.1666C15.0833 19.1666 19.1667 15.0832 19.1667 9.99992C19.1667 4.91658 15.0833 0.833252 10 0.833252C4.91667 0.833252 0.833338 4.91658 0.833338 9.99992C0.833338 15.0832 4.91667 19.1666 10 19.1666ZM10.1667 11.5832C10.5 11.4999 13.25 10.4999 13.25 8.33324C13.25 6.91657 12.3334 5.66657 11 5.24991C9.25002 4.58324 7.33335 5.49991 6.75002 7.24991C6.66668 7.66657 6.83335 8.16657 7.25002 8.16657C7.66668 8.33324 8.16668 8.08324 8.33335 7.66657C8.66668 6.83324 9.66668 6.33324 10.5 6.66657C11.1667 6.91657 11.5834 7.49991 11.5834 8.24991C11.5834 9.16657 10.1667 9.83324 9.66668 9.99991C9.25002 10.1666 9.00002 10.6666 9.16668 11.0832C9.25002 11.4166 9.58335 11.6666 9.91668 11.6666C10 11.6666 10.0834 11.6666 10.1667 11.5832ZM17.5 9.99992C17.5 5.83325 14.1667 2.49992 10 2.49992C5.83333 2.49992 2.5 5.83325 2.5 9.99992C2.5 14.1666 5.83333 17.4999 10 17.4999C14.1667 17.4999 17.5 14.1666 17.5 9.99992ZM10.4167 13.4999C10.5 13.4999 10.5834 13.5833 10.5834 13.5833C10.6667 13.6666 10.75 13.7499 10.6667 13.8333C10.75 13.9166 10.75 14.0833 10.75 14.1666C10.75 14.4166 10.6667 14.5833 10.5 14.7499C10.3334 14.9166 10.1667 14.9999 9.91669 14.9999C9.66669 14.9999 9.50002 14.9166 9.33335 14.7499C9.16669 14.5833 9.08335 14.4166 9.08335 14.1666C9.08335 14.069 9.11195 13.9999 9.13564 13.9427C9.15239 13.9023 9.16669 13.8678 9.16669 13.8333C9.16669 13.7499 9.25002 13.6666 9.33335 13.5833C9.41669 13.4999 9.50002 13.4166 9.58335 13.4166C9.75002 13.3333 9.91669 13.3333 10.0834 13.3333C10.1313 13.3812 10.1516 13.4015 10.1761 13.4102C10.1942 13.4166 10.2146 13.4166 10.25 13.4166C10.2917 13.4166 10.3125 13.4374 10.3334 13.4583C10.3542 13.4791 10.375 13.4999 10.4167 13.4999Z" fill="#004996"/>
<mask id="mask0_1005_837" style="mask-type:alpha" maskUnits="userSpaceOnUse" x="0" y="0" width="20" height="20">
<path fill-rule="evenodd" clip-rule="evenodd" d="M10 19.1666C15.0833 19.1666 19.1667 15.0832 19.1667 9.99992C19.1667 4.91658 15.0833 0.833252 10 0.833252C4.91667 0.833252 0.833338 4.91658 0.833338 9.99992C0.833338 15.0832 4.91667 19.1666 10 19.1666ZM10.1667 11.5832C10.5 11.4999 13.25 10.4999 13.25 8.33324C13.25 6.91657 12.3334 5.66657 11 5.24991C9.25002 4.58324 7.33335 5.49991 6.75002 7.24991C6.66668 7.66657 6.83335 8.16657 7.25002 8.16657C7.66668 8.33324 8.16668 8.08324 8.33335 7.66657C8.66668 6.83324 9.66668 6.33324 10.5 6.66657C11.1667 6.91657 11.5834 7.49991 11.5834 8.24991C11.5834 9.16657 10.1667 9.83324 9.66668 9.99991C9.25002 10.1666 9.00002 10.6666 9.16668 11.0832C9.25002 11.4166 9.58335 11.6666 9.91668 11.6666C10 11.6666 10.0834 11.6666 10.1667 11.5832ZM17.5 9.99992C17.5 5.83325 14.1667 2.49992 10 2.49992C5.83333 2.49992 2.5 5.83325 2.5 9.99992C2.5 14.1666 5.83333 17.4999 10 17.4999C14.1667 17.4999 17.5 14.1666 17.5 9.99992ZM10.4167 13.4999C10.5 13.4999 10.5834 13.5833 10.5834 13.5833C10.6667 13.6666 10.75 13.7499 10.6667 13.8333C10.75 13.9166 10.75 14.0833 10.75 14.1666C10.75 14.4166 10.6667 14.5833 10.5 14.7499C10.3334 14.9166 10.1667 14.9999 9.91669 14.9999C9.66669 14.9999 9.50002 14.9166 9.33335 14.7499C9.16669 14.5833 9.08335 14.4166 9.08335 14.1666C9.08335 14.069 9.11195 13.9999 9.13564 13.9427C9.15239 13.9023 9.16669 13.8678 9.16669 13.8333C9.16669 13.7499 9.25002 13.6666 9.33335 13.5833C9.41669 13.4999 9.50002 13.4166 9.58335 13.4166C9.75002 13.3333 9.91669 13.3333 10.0834 13.3333C10.1313 13.3812 10.1516 13.4015 10.1761 13.4102C10.1942 13.4166 10.2146 13.4166 10.25 13.4166C10.2917 13.4166 10.3125 13.4374 10.3334 13.4583C10.3542 13.4791 10.375 13.4999 10.4167 13.4999Z" fill="white"/>
</mask>
<g mask="url(#mask0_1005_837)">
<rect width="20" height="20" fill="#004996"/>
</g>
</svg>
