<svg width="129" height="67" viewBox="0 0 129 67" fill="none" xmlns="http://www.w3.org/2000/svg">
<path d="M1.26471 58.4491L0 58.3869V67H129V9.79546C126.471 13.6248 123.941 20.7616 121.412 23.6571C118.882 26.5526 116.353 25.2068 113.824 28.3652C111.294 31.5237 108.765 39.1866 106.235 34.3348C103.706 29.483 101.176 12.1166 98.647 4.54987C96.1176 -3.0169 93.5882 -0.784064 91.0588 8.56919C88.5294 17.9224 86 34.3961 83.4706 34.5079C80.9412 34.6196 78.4118 18.3695 75.8824 19.8721C73.3529 21.3748 70.8235 40.6304 68.2941 43.9135C65.7647 47.1966 63.2353 34.5073 60.7059 31.9885C58.1765 29.4697 55.6471 37.1214 53.1176 36.1447C50.5882 35.1679 48.0588 25.5626 45.5294 21.2963C43 17.0299 40.4706 18.1025 37.9412 21.3703C35.4118 24.6382 32.8824 30.1013 30.3529 37.6867C27.8235 45.2721 25.2941 54.9798 22.7647 56.232C20.2353 57.4843 17.7059 50.2811 15.1765 49.2932C12.6471 48.3052 10.1176 53.5325 7.58824 56.084C5.05882 58.6355 2.52941 58.5112 1.26471 58.4491Z" fill="url(#paint0_linear_963_3354)"/>
<defs>
<linearGradient id="paint0_linear_963_3354" x1="64.5" y1="0" x2="64.5" y2="67" gradientUnits="userSpaceOnUse">
<stop stop-color="#6776C5"/>
<stop offset="1" stop-color="white" stop-opacity="0"/>
</linearGradient>
</defs>
</svg>
