<svg width="24" height="24" viewBox="0 0 24 24" fill="none" xmlns="http://www.w3.org/2000/svg">
<path fill-rule="evenodd" clip-rule="evenodd" d="M12 3C14.625 3 16.6875 5.06249 16.6875 7.68748C16.6875 10.3125 14.625 12.375 12 12.375C9.37503 12.375 7.31254 10.3125 7.31254 7.68748C7.31254 5.06249 9.37503 3 12 3Z" fill="#333749"/>
<path d="M7.42245 6.65625C7.3504 6.98766 7.3125 7.33315 7.3125 7.68896C7.3125 10.314 9.37499 12.3764 12 12.3764C14.625 12.3764 16.6875 10.314 16.6875 7.68896C16.6875 7.33315 16.6496 6.98766 16.5775 6.65625C16.118 8.76977 14.2691 10.311 12 10.311C9.73081 10.311 7.88198 8.76977 7.42245 6.65625Z" fill="#333749"/>
<path d="M8.40731 13.5H8.24998C5.62499 13.5 3.5625 15.5625 3.5625 18.1875V20.0625C3.5625 20.625 3.9375 21 4.5 21H19.4999C20.0624 21 20.4374 20.625 20.4374 20.0625V18.1875C20.4374 15.5625 18.3749 13.5 15.7499 13.5H15.5918C14.7379 14.5127 13.4552 15.1469 11.9996 15.1469C10.5439 15.1469 9.26123 14.5127 8.40731 13.5Z" fill="#333749"/>
</svg>
