<svg width="18" height="18" viewBox="0 0 18 18" fill="none" xmlns="http://www.w3.org/2000/svg">
<path fill-rule="evenodd" clip-rule="evenodd" d="M9.00005 -2.04896e-07C11.625 -9.01543e-08 13.6875 2.06249 13.6875 4.68748C13.6875 7.31247 11.625 9.37496 9.00005 9.37496C6.37506 9.37496 4.31257 7.31247 4.31257 4.68748C4.31257 2.06249 6.37507 -3.19638e-07 9.00005 -2.04896e-07Z" fill="#D2D4D8"/>
<path d="M4.42248 3.65625C4.35043 3.98766 4.31253 4.33315 4.31253 4.68896C4.31253 7.31395 6.37502 9.37644 9.00001 9.37644C11.625 9.37644 13.6875 7.31395 13.6875 4.68896C13.6875 4.33315 13.6496 3.98766 13.5775 3.65625C13.118 5.76977 11.2692 7.31101 9.00001 7.31101C6.73084 7.31101 4.88201 5.76977 4.42248 3.65625Z" fill="#C0C2C8"/>
<path d="M5.40734 10.5H5.25001C2.62502 10.5 0.562531 12.5625 0.562531 15.1875V17.0625C0.562531 17.625 0.937529 18 1.50003 18H16.5C17.0625 18 17.4375 17.625 17.4375 17.0625V15.1875C17.4375 12.5625 15.375 10.5 12.75 10.5H12.5918C11.7379 11.5127 10.4552 12.1469 8.99958 12.1469C7.54393 12.1469 6.26126 11.5127 5.40734 10.5Z" fill="#C0C2C8"/>
</svg>
