<svg width="54" height="20" viewBox="0 0 54 20" fill="none" xmlns="http://www.w3.org/2000/svg">
<rect width="54" height="20" rx="10" fill="white" fill-opacity="0.1"/>
<circle cx="13" cy="10" r="3.5" fill="#30AD5C" stroke="#EDF8F1" stroke-width="2"/>
<path d="M26.184 6.324V13.908H30V15H25.008V6.324H26.184ZM31.6375 7.74C31.2295 7.74 30.8935 7.404 30.8935 6.996C30.8935 6.576 31.2295 6.252 31.6375 6.252C32.0455 6.252 32.3815 6.576 32.3815 6.996C32.3815 7.404 32.0455 7.74 31.6375 7.74ZM31.0855 15V9.132H32.2135V15H31.0855ZM35.4952 15L33.1312 9.132H34.3312L35.6152 12.408C35.8192 12.96 35.9872 13.452 36.0832 13.812C36.1792 13.428 36.3712 12.924 36.5752 12.408L37.8832 9.132H39.0592L36.6112 15H35.4952ZM42.2191 15.144C40.4911 15.144 39.3031 13.896 39.3031 12.072C39.3031 10.236 40.4671 8.964 42.1711 8.964C43.8391 8.964 44.9311 10.116 44.9311 11.856V12.276L40.3951 12.288C40.4791 13.524 41.1271 14.208 42.2431 14.208C43.1191 14.208 43.6951 13.848 43.8871 13.176H44.9431C44.6551 14.436 43.6711 15.144 42.2191 15.144ZM42.1711 9.912C41.1871 9.912 40.5631 10.5 40.4191 11.532H43.8031C43.8031 10.56 43.1671 9.912 42.1711 9.912Z" fill="white"/>
</svg>
